<?xml version="1.0" encoding="utf-8"?>
<!-- Generator: Adobe Illustrator 16.0.0, SVG Export Plug-In . SVG Version: 6.00 Build 0)  -->
<!DOCTYPE svg PUBLIC "-//W3C//DTD SVG 1.1//EN" "http://www.w3.org/Graphics/SVG/1.1/DTD/svg11.dtd">
<svg version="1.1" id="Layer_1" xmlns="http://www.w3.org/2000/svg" xmlns:xlink="http://www.w3.org/1999/xlink" x="0px" y="0px"
	 width="40px" height="40px" viewBox="0 0 40 40" enable-background="new 0 0 40 40" xml:space="preserve">
<g>
	<g>
		<path fill-rule="evenodd" clip-rule="evenodd" fill="#3853A3" d="M9.056,24.477c0-2.926,0-5.852,0-8.777
			c0.011-0.027,0.021-0.054,0.03-0.08c0.242-0.762,0.673-1.078,1.467-1.078c0.943,0,1.887,0.002,2.831-0.004
			c0.08,0,0.18-0.021,0.237-0.07c0.344-0.287,0.677-0.586,1.013-0.881c0.856-0.754,1.713-1.507,2.568-2.26
			c0.551-0.482,1.1-0.969,1.654-1.447c0.38-0.328,0.73-0.704,1.249-0.824c0.128,0,0.256,0,0.385,0
			c0.03,0.014,0.061,0.029,0.093,0.041c0.455,0.164,0.779,0.584,0.779,1.012c0.002,6.59,0.003,13.181,0,19.769
			c0,0.119-0.027,0.242-0.069,0.354c-0.144,0.375-0.436,0.59-0.803,0.715c-0.129,0-0.257,0-0.385,0
			c-0.363-0.105-0.665-0.307-0.951-0.553c-0.854-0.736-1.728-1.449-2.587-2.18c-0.931-0.789-1.855-1.586-2.779-2.383
			c-0.15-0.131-0.306-0.195-0.515-0.193c-0.913,0.014-1.827,0.004-2.741,0.008c-0.379,0-0.724-0.088-1.016-0.344
			C9.265,25.08,9.148,24.785,9.056,24.477z"/>
		<path fill-rule="evenodd" clip-rule="evenodd" fill="#3853A3" d="M30.944,23.113c-0.108,0.295-0.271,0.537-0.596,0.631
			c-0.286,0.084-0.556,0.041-0.768-0.158c-0.465-0.439-0.915-0.895-1.367-1.348c-0.349-0.35-0.693-0.703-1.069-1.084
			c-0.539,0.551-1.059,1.084-1.581,1.615c-0.252,0.258-0.507,0.514-0.767,0.764c-0.303,0.295-0.737,0.332-1.071,0.1
			c-0.324-0.227-0.452-0.674-0.258-1.041c0.098-0.184,0.261-0.34,0.411-0.49c0.663-0.67,1.333-1.334,2-2
			c0.028-0.027,0.05-0.063,0.104-0.129c-0.237-0.227-0.477-0.446-0.707-0.674c-0.538-0.532-1.073-1.067-1.607-1.603
			c-0.296-0.298-0.369-0.674-0.204-1.021c0.139-0.293,0.482-0.503,0.819-0.441c0.184,0.034,0.385,0.125,0.518,0.253
			c0.767,0.739,1.516,1.498,2.27,2.25c0.024,0.024,0.051,0.046,0.102,0.093c0.29-0.298,0.576-0.596,0.866-0.888
			c0.492-0.495,0.976-1,1.485-1.477c0.476-0.443,1.139-0.272,1.377,0.329c0.013,0.031,0.028,0.063,0.043,0.094
			c0,0.117,0,0.234,0,0.351c-0.088,0.142-0.153,0.304-0.267,0.421c-0.449,0.464-0.912,0.914-1.371,1.368
			c-0.321,0.318-0.645,0.635-0.973,0.959c0.056,0.064,0.091,0.109,0.132,0.15c0.473,0.473,0.956,0.936,1.417,1.42
			c0.37,0.387,0.825,0.701,1.062,1.207C30.944,22.879,30.944,22.996,30.944,23.113z"/>
	</g>
</g>
</svg>
