<?xml version="1.0" encoding="utf-8"?>
<!-- Generator: Adobe Illustrator 16.0.0, SVG Export Plug-In . SVG Version: 6.00 Build 0)  -->
<!DOCTYPE svg PUBLIC "-//W3C//DTD SVG 1.1//EN" "http://www.w3.org/Graphics/SVG/1.1/DTD/svg11.dtd">
<svg version="1.1" id="Layer_1" xmlns="http://www.w3.org/2000/svg" xmlns:xlink="http://www.w3.org/1999/xlink" x="0px" y="0px"
	 width="40px" height="40px" viewBox="0 0 40 40" enable-background="new 0 0 40 40" xml:space="preserve">
<g>
	<path fill-rule="evenodd" clip-rule="evenodd" fill="#6052A2" d="M18.359,28.275c0,1.465-1.191,2.656-2.656,2.656l0,0
		c-1.464,0-2.656-1.191-2.656-2.656V12.344c0-1.465,1.192-2.656,2.656-2.656l0,0c1.465,0,2.656,1.191,2.656,2.656V28.275z"/>
	<path fill-rule="evenodd" clip-rule="evenodd" fill="#6052A2" d="M27.49,28.275c0,1.465-1.188,2.656-2.653,2.656l0,0
		c-1.468,0-2.656-1.191-2.656-2.656V12.344c0-1.465,1.188-2.656,2.656-2.656l0,0c1.465,0,2.653,1.191,2.653,2.656V28.275z"/>
</g>
</svg>
