<?xml version="1.0" encoding="utf-8"?>
<!-- Generator: Adobe Illustrator 16.0.0, SVG Export Plug-In . SVG Version: 6.00 Build 0)  -->
<!DOCTYPE svg PUBLIC "-//W3C//DTD SVG 1.1//EN" "http://www.w3.org/Graphics/SVG/1.1/DTD/svg11.dtd">
<svg version="1.1" id="Layer_1" xmlns="http://www.w3.org/2000/svg" xmlns:xlink="http://www.w3.org/1999/xlink" x="0px" y="0px"
	 width="10.022px" height="7.46px" viewBox="0 0 10.022 7.46" enable-background="new 0 0 10.022 7.46" xml:space="preserve">
<g>
	<linearGradient id="SVGID_1_" gradientUnits="userSpaceOnUse" x1="0" y1="3.73" x2="10.0225" y2="3.73">
		<stop  offset="0" style="stop-color:#7E479B"/>
		<stop  offset="0.0212" style="stop-color:#754A9D"/>
		<stop  offset="0.064" style="stop-color:#694FA0"/>
		<stop  offset="0.1237" style="stop-color:#6251A2"/>
		<stop  offset="0.2843" style="stop-color:#6052A2"/>
		<stop  offset="0.7002" style="stop-color:#79A0D4"/>
		<stop  offset="1" style="stop-color:#79A0D4"/>
	</linearGradient>
	<path fill-rule="evenodd" clip-rule="evenodd" fill="url(#SVGID_1_)" d="M5.014,0c0.133,0,0.266,0.002,0.398,0
		c0.174-0.003,0.344,0.025,0.51,0.076c0.154,0.047,0.316,0.081,0.467,0.141c0.219,0.084,0.438,0.176,0.646,0.281
		c0.359,0.18,0.689,0.404,1.01,0.646C8.422,1.43,8.764,1.753,9.08,2.1c0.314,0.344,0.596,0.713,0.813,1.13
		c0.115,0.22,0.158,0.45,0.111,0.689C9.982,4.029,9.93,4.136,9.879,4.238C9.557,4.861,9.092,5.371,8.584,5.845
		C8.279,6.13,7.951,6.386,7.6,6.615C7.309,6.806,7.008,6.984,6.684,7.111c-0.25,0.1-0.508,0.184-0.764,0.266
		C5.822,7.408,5.715,7.416,5.611,7.427C5.482,7.441,5.354,7.458,5.225,7.458C4.99,7.462,4.754,7.462,4.52,7.447
		C4.379,7.439,4.234,7.412,4.098,7.375C3.895,7.32,3.693,7.255,3.496,7.181C3.143,7.046,2.811,6.869,2.492,6.664
		C2.182,6.464,1.885,6.248,1.609,6C1.281,5.707,0.969,5.4,0.691,5.06C0.506,4.833,0.336,4.599,0.197,4.343
		c-0.074-0.139-0.16-0.274-0.184-0.431c-0.031-0.217-0.012-0.428,0.09-0.63C0.207,3.076,0.33,2.883,0.461,2.693
		C0.77,2.246,1.146,1.863,1.547,1.5c0.375-0.342,0.787-0.639,1.23-0.891c0.326-0.186,0.666-0.341,1.023-0.456
		c0.178-0.057,0.361-0.095,0.543-0.137c0.053-0.013,0.107-0.015,0.16-0.016C4.674-0.001,4.844,0,5.014,0L5.014,0z M5.01,6.24
		c1.387,0.012,2.531-1.146,2.525-2.523c-0.004-1.376-1.139-2.512-2.52-2.514C3.629,1.199,2.49,2.344,2.486,3.717
		C2.482,5.091,3.625,6.251,5.01,6.24z"/>
	<linearGradient id="SVGID_2_" gradientUnits="userSpaceOnUse" x1="3.7622" y1="3.7246" x2="6.2656" y2="3.7246">
		<stop  offset="0" style="stop-color:#7E479B"/>
		<stop  offset="0.0212" style="stop-color:#754A9D"/>
		<stop  offset="0.064" style="stop-color:#694FA0"/>
		<stop  offset="0.1237" style="stop-color:#6251A2"/>
		<stop  offset="0.2843" style="stop-color:#6052A2"/>
		<stop  offset="0.7002" style="stop-color:#79A0D4"/>
		<stop  offset="1" style="stop-color:#79A0D4"/>
	</linearGradient>
	<path fill-rule="evenodd" clip-rule="evenodd" fill="url(#SVGID_2_)" d="M5.01,4.976c-0.568,0.014-1.057-0.387-1.201-0.9
		C3.783,3.99,3.771,3.9,3.764,3.813c-0.008-0.076,0.01-0.086,0.082-0.095c0.066-0.007,0.133-0.015,0.199-0.03
		C4.242,3.644,4.414,3.551,4.568,3.42c0.25-0.211,0.385-0.482,0.441-0.799c0.002-0.013,0.004-0.025,0.004-0.039
		c0.004-0.106,0.012-0.115,0.119-0.106c0.246,0.021,0.465,0.11,0.658,0.263c0.25,0.199,0.406,0.459,0.455,0.77
		c0.061,0.367-0.02,0.712-0.262,1.007C5.801,4.74,5.566,4.888,5.283,4.951C5.193,4.97,5.102,4.968,5.01,4.976z"/>
</g>
</svg>
