<?xml version="1.0" encoding="utf-8"?>
<!-- Generator: Adobe Illustrator 16.0.0, SVG Export Plug-In . SVG Version: 6.00 Build 0)  -->
<!DOCTYPE svg PUBLIC "-//W3C//DTD SVG 1.1//EN" "http://www.w3.org/Graphics/SVG/1.1/DTD/svg11.dtd">
<svg version="1.1" id="Layer_1" xmlns="http://www.w3.org/2000/svg" xmlns:xlink="http://www.w3.org/1999/xlink" x="0px" y="0px"
	 width="11.691px" height="11.69px" viewBox="0 0 11.691 11.69" enable-background="new 0 0 11.691 11.69" xml:space="preserve">
<path fill="#79A0D4" d="M11.382,9.896L9.548,8.061c1.33-2.018,1.107-4.76-0.668-6.537c-2.033-2.032-5.326-2.031-7.355,0
	c-2.031,2.031-2.033,5.324,0,7.355c1.775,1.776,4.518,2,6.535,0.668l1.836,1.836c0.412,0.411,1.076,0.41,1.486,0
	C11.794,10.973,11.794,10.307,11.382,9.896z M2.776,7.627c-1.34-1.34-1.34-3.512,0-4.851c1.34-1.34,3.512-1.34,4.852,0
	s1.338,3.512,0,4.851C6.288,8.967,4.116,8.967,2.776,7.627z"/>
</svg>
