<svg xmlns="http://www.w3.org/2000/svg" viewBox="0 0 19.555 19.557"><defs><style>.a{fill:#fefeff;fill-rule:evenodd;}</style></defs><title>soc-fb</title><path class="a" d="M0,0V19.557H19.555V0H0ZM12.828,5.779V5.867H11.8a2.092,2.092,0,0,0-.546.06,0.679,0.679,0,0,0-.527.628C10.705,6.777,10.7,7,10.7,7.226c0,0.3,0,.6,0,0.9a0.06,0.06,0,0,0,.075.075c0.632,0,1.264,0,1.9,0H12.76c-0.091.7-.18,1.39-0.27,2.089H12.4c-0.54,0-1.08,0-1.619,0-0.068,0-.086.017-0.086,0.087q0,2.585,0,5.172c0,0.031,0,.063,0,0.094H8.533c0-.031,0-0.062,0-0.094q0-2.581,0-5.166c0-.09,0-0.09-0.091-0.09H6.725V8.2H6.81c0.547,0,1.094,0,1.64,0a0.063,0.063,0,0,0,.08-0.078c0-.549-0.01-1.1,0-1.647a2.812,2.812,0,0,1,.363-1.369A2.309,2.309,0,0,1,10.436,4a2.843,2.843,0,0,1,.726-0.082c0.308,0,.616,0,0.925.017,0.232,0.009.464,0.032,0.7,0.054a0.1,0.1,0,0,1,.045.049,0.09,0.09,0,0,1,0,.04V5.779Z" transform="translate(0 0)"/></svg>