<svg xmlns="http://www.w3.org/2000/svg" viewBox="0 0 19.555 19.557"><defs><style>.a{fill:#fefeff;fill-rule:evenodd;}</style></defs><title>soc-youtube2</title><path class="a" d="M9,12.383c0,0.73-.013,1.461.008,2.189a0.424,0.424,0,0,1-.265.43c-0.255.138-.391,0.06-0.391-0.227q0-1.2,0-2.394V12.163H7.555c0,0.993,0,1.968,0,2.942a0.54,0.54,0,0,0,.779.579,4.679,4.679,0,0,0,.654-0.317C9,15.451,9,15.556,9.008,15.664h0.77v-3.51H9v0.229Z"/><path class="a" d="M11.847,12.111a3.378,3.378,0,0,0-.68.2v-1.4h-0.8v4.758h0.788c0.009-.068.017-0.128,0.022-0.168a3.59,3.59,0,0,0,.559.206,0.665,0.665,0,0,0,.865-0.623c0.016-.756.015-1.513,0-2.269A0.667,0.667,0,0,0,11.847,12.111Zm-0.064,2.726a0.249,0.249,0,0,1-.266.307,0.308,0.308,0,0,1-.348-0.322c0-.307,0-0.613,0-0.92v-0.92a0.26,0.26,0,0,1,.295-0.3,0.277,0.277,0,0,1,.316.293c0.008,0.162,0,.326,0,0.49C11.783,13.925,11.785,14.381,11.782,14.838Z"/><path class="a" d="M9.975,7.979a0.346,0.346,0,0,0,.4-0.383q0.007-.99,0-1.981a0.313,0.313,0,0,0-.383-0.34,0.3,0.3,0,0,0-.36.337c0,0.334,0,.666,0,1s0,0.653,0,.98A0.329,0.329,0,0,0,9.975,7.979Z"/><path class="a" d="M7.028,10.884c-0.777.009-1.555,0-2.333,0-0.057,0-.115.01-0.19,0.018,0,0.188.007,0.356,0,.525a0.15,0.15,0,0,0,.186.189c0.235-.01.474,0,0.731,0v4.043H6.336V11.619H6.713c0.527,0,.521,0,0.523-0.526A0.169,0.169,0,0,0,7.028,10.884Z"/><path class="a" d="M0,0V19.557H19.555V0H0ZM11.984,4.708c0.063-.006.1-0.014,0.141-0.014,0.231,0,.463,0,0.725,0V4.922q0,1.321,0,2.639c0,0.337.154,0.429,0.452,0.278a0.455,0.455,0,0,0,.3-0.473c-0.021-.8-0.007-1.609-0.007-2.413V4.713h0.876V8.539H13.6c-0.008-.117-0.014-0.228-0.022-0.367-0.075.056-.127,0.1-0.18,0.135a1.4,1.4,0,0,1-.767.3A0.553,0.553,0,0,1,11.985,8c0-.975,0-1.949,0-2.924V4.708Zm-2.846.11A1.636,1.636,0,0,1,10.812,4.8a0.852,0.852,0,0,1,.454.794V7.532a0.978,0.978,0,0,1-.87,1.079,1.725,1.725,0,0,1-1.006-.061,0.958,0.958,0,0,1-.665-0.936c-0.012-.69-0.007-1.379,0-2.067A0.8,0.8,0,0,1,9.139,4.818ZM6.258,3.326a0.246,0.246,0,0,1,.138.159C6.572,4.043,6.74,4.6,6.912,5.162a0.578,0.578,0,0,0,.124.24c0.039-.127.081-0.255,0.118-0.384C7.307,4.5,7.461,3.989,7.6,3.471a0.18,0.18,0,0,1,.213-0.156c0.271,0.01.544,0,.838,0C8.62,3.414,8.6,3.49,8.568,3.566,8.237,4.451,7.9,5.336,7.575,6.222a1.049,1.049,0,0,0-.055.339c0,0.654,0,1.307,0,1.986H6.545C6.539,8.488,6.531,8.436,6.528,8.385a2.033,2.033,0,0,1,0-.205,6.222,6.222,0,0,0-.577-3.25c-0.235-.51-0.4-1.053-0.605-1.61C5.665,3.319,5.962,3.312,6.258,3.326Zm9.268,13.209H4.028a1.144,1.144,0,0,1-1.206-1.2q0-2.272,0-4.541a1.143,1.143,0,0,1,1.2-1.206h11.5a1.144,1.144,0,0,1,1.205,1.206q0,2.269,0,4.541A1.144,1.144,0,0,1,15.526,16.535Z"/><path class="a" d="M15.3,12.936a0.867,0.867,0,0,0-.674-0.825,1.486,1.486,0,0,0-.922.019,0.912,0.912,0,0,0-.691.825c-0.025.632-.019,1.267,0,1.9a0.883,0.883,0,0,0,.722.855,2.166,2.166,0,0,0,.785.011,0.944,0.944,0,0,0,.759-1.215H14.493c-0.008.133-.008,0.249-0.021,0.364a0.283,0.283,0,0,1-.326.264,0.273,0.273,0,0,1-.307-0.264c-0.015-.283,0-0.566,0-0.865H15.3C15.3,13.628,15.317,13.281,15.3,12.936Zm-0.811.479H13.828a0.754,0.754,0,0,1,.135-0.663,0.418,0.418,0,0,1,.376,0A0.733,0.733,0,0,1,14.487,13.415Z"/></svg>