<?xml version="1.0" encoding="utf-8"?>
<!-- Generator: Adobe Illustrator 16.0.0, SVG Export Plug-In . SVG Version: 6.00 Build 0)  -->
<!DOCTYPE svg PUBLIC "-//W3C//DTD SVG 1.1//EN" "http://www.w3.org/Graphics/SVG/1.1/DTD/svg11.dtd">
<svg version="1.1" id="Layer_1" xmlns="http://www.w3.org/2000/svg" xmlns:xlink="http://www.w3.org/1999/xlink" x="0px" y="0px"
	 width="40px" height="40px" viewBox="0 0 40 40" enable-background="new 0 0 40 40" xml:space="preserve">
<g>
	<path fill-rule="evenodd" clip-rule="evenodd" fill="#7E479B" d="M9.061,26.229c0-0.887-0.003-1.771,0-2.658
		c0.006-0.916,0.541-1.648,1.412-1.84c0.704-0.152,1.399-0.096,1.966,0.428c0.314,0.285,0.515,0.645,0.57,1.07
		c0.027,0.207,0.035,0.418,0.035,0.627c0.002,1.643,0.002,3.285,0,4.93c0,0.393-0.057,0.775-0.277,1.117
		c-0.322,0.496-0.768,0.799-1.361,0.867c-0.453,0.053-0.896,0.039-1.311-0.174c-0.632-0.326-0.999-0.846-1.021-1.555
		c-0.029-0.938-0.008-1.875-0.008-2.813C9.066,26.229,9.063,26.229,9.061,26.229z"/>
	<path fill-rule="evenodd" clip-rule="evenodd" fill="#7E479B" d="M30.943,29.158c-0.083,0.309-0.168,0.615-0.367,0.877
		c-0.459,0.604-1.085,0.797-1.814,0.754c-0.586-0.033-1.063-0.268-1.423-0.734c-0.285-0.365-0.387-0.787-0.387-1.24
		c0-1.965,0-3.926,0-5.889c0-2.243-0.003-4.487,0.003-6.729c0-0.809,0.344-1.42,1.082-1.787c0.312-0.152,0.646-0.182,0.988-0.174
		c0.743,0.014,1.326,0.318,1.686,0.984c0.109,0.199,0.158,0.432,0.232,0.65C30.943,20.3,30.943,24.73,30.943,29.158z"/>
	<path fill-rule="evenodd" clip-rule="evenodd" fill="#7E479B" d="M14.775,25.523c0.082-0.314,0.17-0.627,0.375-0.893
		c0.344-0.443,0.795-0.688,1.352-0.738c0.729-0.066,1.375,0.102,1.856,0.699c0.274,0.34,0.402,0.734,0.405,1.164
		c0.008,1.055,0.014,2.109-0.003,3.164c-0.011,0.877-0.487,1.547-1.343,1.789c-0.911,0.254-1.91,0.041-2.419-0.914
		c-0.104-0.197-0.151-0.422-0.224-0.637C14.775,27.947,14.775,26.734,14.775,25.523z"/>
	<path fill-rule="evenodd" clip-rule="evenodd" fill="#7E479B" d="M24.854,24.686c0,1.369,0,2.738,0,4.107
		c-0.003,0.363-0.049,0.719-0.237,1.041c-0.325,0.549-0.792,0.869-1.429,0.938c-0.429,0.047-0.852,0.037-1.246-0.158
		c-0.73-0.361-1.071-0.969-1.071-1.773c0-2.746,0-5.49,0.003-8.235c0-0.152,0.008-0.303,0.026-0.453
		c0.093-0.805,0.788-1.471,1.599-1.559c0.37-0.037,0.729-0.021,1.09,0.076c0.612,0.168,1.195,0.871,1.236,1.506
		c0.018,0.262,0.026,0.523,0.026,0.785C24.855,22.201,24.854,23.443,24.854,24.686z"/>
	<path fill-rule="evenodd" clip-rule="evenodd" fill="#7E479B" d="M30.943,11.189c0,1.102-0.893,1.996-1.996,1.996l0,0
		c-1.103,0-1.996-0.895-1.996-1.996l0,0c0-1.104,0.894-1.996,1.996-1.996l0,0C30.051,9.193,30.943,10.085,30.943,11.189
		L30.943,11.189z"/>
	<path fill-rule="evenodd" clip-rule="evenodd" fill="#7E479B" d="M24.862,15.521c0,1.104-0.893,1.998-1.996,1.998l0,0
		c-1.103,0-1.996-0.895-1.996-1.998l0,0c0-1.102,0.894-1.996,1.996-1.996l0,0C23.97,13.525,24.862,14.419,24.862,15.521
		L24.862,15.521z"/>
	<path fill-rule="evenodd" clip-rule="evenodd" fill="#7E479B" d="M13.048,18.539c0,1.102-0.893,1.996-1.996,1.996l0,0
		c-1.103,0-1.996-0.895-1.996-1.996l0,0c0-1.104,0.894-1.996,1.996-1.996l0,0C12.155,16.542,13.048,17.435,13.048,18.539
		L13.048,18.539z"/>
	<path fill-rule="evenodd" clip-rule="evenodd" fill="#7E479B" d="M18.77,20.83c0,1.102-0.893,1.997-1.996,1.997l0,0
		c-1.103,0-1.996-0.895-1.996-1.997l0,0c0-1.102,0.894-1.996,1.996-1.996l0,0C17.877,18.833,18.77,19.728,18.77,20.83L18.77,20.83z"
		/>
</g>
</svg>
