<svg xmlns="http://www.w3.org/2000/svg" xmlns:xlink="http://www.w3.org/1999/xlink" width="110.6" height="35.23" viewBox="0 0 110.6 35.23">
  <defs>
    <path id="a" d="M2.715 13.862c-.548.437-.82 1.005-.82 1.704 0 .338.066.638.2.9s.323.492.567.69c.246.198.54.376.884.533.343.15.726.3 1.146.42.29.09.56.18.804.28.245.09.454.19.63.31.174.11.31.25.402.4.092.15.14.33.14.56 0 .21-.054.38-.157.53-.1.14-.24.26-.41.36-.17.09-.36.16-.57.2-.21.04-.43.06-.65.06-.38 0-.8-.06-1.27-.19-.46-.13-.91-.32-1.35-.56l-.56 1.15c.47.26.98.47 1.53.62.56.14 1.1.22 1.64.22.47 0 .91-.06 1.31-.16.41-.11.77-.27 1.07-.48.31-.21.54-.47.71-.78.17-.31.26-.67.26-1.08 0-.4-.08-.74-.23-1.03-.15-.29-.36-.54-.64-.75s-.6-.4-.97-.56c-.38-.16-.79-.3-1.23-.43-.37-.1-.67-.2-.9-.3-.23-.1-.4-.2-.53-.31-.13-.11-.22-.22-.26-.34-.05-.115-.07-.244-.07-.384 0-.28.14-.52.42-.728.28-.208.72-.31 1.31-.31.28 0 .62.04 1.03.113.41.074.84.23 1.28.46l.51-1.17c-.43-.234-.88-.404-1.35-.51-.47-.104-.96-.16-1.46-.16-1.023.006-1.81.22-2.36.66"/>
  </defs>
  <use xlink:href="#a" overflow="visible" fill="#FFF"/>
  <defs>
    <path id="b" d="M11.445 19.91c-.372-.564-.56-1.337-.56-2.315 0-.874.196-1.6.587-2.177s.97-.878 1.74-.9c.384 0 .72.08 1.004.235.286.158.527.373.727.647.197.274.347.6.445.98.1.377.148.794.148 1.25 0 .418-.047.817-.14 1.196s-.235.71-.43.996c-.19.286-.433.514-.724.682-.293.17-.642.254-1.05.254-.79 0-1.373-.282-1.747-.847m.2-6.39c-.48.21-.895.51-1.24.9-.343.39-.608.86-.795 1.42-.187.56-.28 1.19-.28 1.89 0 .65.085 1.25.254 1.78.17.54.414 1 .734 1.38.32.38.717.68 1.19.89.47.21 1.01.32 1.616.32.594 0 1.137-.1 1.626-.31.49-.21.905-.51 1.25-.91.344-.39.608-.87.795-1.42.187-.55.28-1.18.28-1.88 0-.65-.09-1.24-.27-1.78-.182-.53-.44-.99-.77-1.37s-.73-.67-1.198-.87c-.466-.2-.99-.3-1.573-.3-.594 0-1.133.11-1.618.32"/>
  </defs>
  <use xlink:href="#b" overflow="visible" fill="#FFF"/>
  <defs>
    <path id="c" d="M23.908 13.364v5c0 .29-.035.56-.105.804-.127.454-.352.82-.673 1.102-.32.28-.726.42-1.214.42-.643 0-1.103-.19-1.383-.568-.28-.38-.42-.94-.42-1.688v-5.07h-1.537v5.455c0 2.16.96 3.25 2.885 3.25.41 0 .83-.1 1.26-.3.43-.2.81-.53 1.14-.98h.06v1.1h1.54v-8.53h-1.54z"/>
  </defs>
  <use xlink:href="#c" overflow="visible" fill="#FFF"/>
  <defs>
    <path id="d" d="M30.045 13.513c-.455.203-.834.533-1.137.986l-.053-.02v-1.12h-1.54v8.53h1.54v-5c0-.27.03-.52.088-.75.116-.47.347-.86.69-1.16s.76-.46 1.25-.46c.653 0 1.125.2 1.417.59.29.39.437.96.437 1.71v5.05h1.538v-5.31c0-1.09-.232-1.92-.7-2.5-.465-.59-1.205-.88-2.22-.88-.418 0-.856.1-1.31.31"/>
  </defs>
  <use xlink:href="#d" overflow="visible" fill="#FFF"/>
  <defs>
    <path id="e" d="M37.887 20.034c-.362-.496-.543-1.198-.543-2.107 0-1.096.192-1.938.577-2.526s.93-.88 1.63-.88c.68 0 1.33.32 1.96.95v4.2c-.24.29-.54.55-.89.78-.35.23-.74.34-1.19.34-.66 0-1.17-.25-1.53-.74m3.6-18.08v11.95h-.09c-.3-.25-.62-.44-.97-.54-.34-.1-.71-.16-1.09-.16-.43 0-.85.09-1.27.27-.42.18-.79.46-1.12.84s-.6.88-.81 1.48-.31 1.33-.31 2.18c0 .73.09 1.35.26 1.86.17.52.4.95.69 1.28.29.34.63.58 1.03.74s.81.24 1.26.24c.39 0 .79-.06 1.19-.2s.8-.39 1.19-.78h.07v.81h1.54V1.31l-1.54.646z"/>
  </defs>
  <use xlink:href="#e" overflow="visible" fill="#FFF"/>
  <defs>
    <path id="f" d="M47.303 20.47c-.345-.18-.64-.404-.884-.672V15.6c.23-.29.52-.55.87-.776.35-.227.74-.34 1.19-.34.63 0 1.13.268 1.51.803.38.537.57 1.295.57 2.273 0 1.05-.19 1.842-.56 2.378-.38.536-.91.804-1.61.804-.39 0-.75-.09-1.09-.27m.35-7.065c-.4.146-.78.4-1.16.76h-.07v-.82H44.9V30.93c.057-.02.16-.065.305-.13.146-.063.298-.13.454-.2.15-.07.31-.138.45-.2.14-.065.25-.11.3-.133V21.3h.07c.33.293.68.49 1.05.596.36.105.72.157 1.1.157.42 0 .83-.08 1.25-.245.41-.163.78-.425 1.11-.786s.59-.828.79-1.4c.2-.57.3-1.263.3-2.08 0-.745-.09-1.392-.27-1.94-.19-.547-.42-1.002-.72-1.363s-.65-.63-1.04-.8c-.4-.17-.81-.26-1.23-.26-.4-.01-.8.07-1.19.21"/>
  </defs>
  <use xlink:href="#f" overflow="visible" fill="#FFF"/>
  <defs>
    <path id="g" d="M58.972 13.364v5c0 .29-.034.56-.104.804-.13.454-.353.82-.674 1.102-.32.28-.725.42-1.215.42-.65 0-1.11-.19-1.39-.568-.28-.38-.42-.94-.42-1.688v-5.07h-1.53v5.455c0 2.16.96 3.25 2.88 3.25.4 0 .82-.1 1.26-.3.43-.2.81-.53 1.13-.98h.06v1.1h1.54v-8.53h-1.54z"/>
  </defs>
  <use xlink:href="#g" overflow="visible" fill="#FFF"/>
  <defs>
    <path id="h" d="M62.47 10.356v11.54h1.538V9.692z"/>
  </defs>
  <use xlink:href="#h" overflow="visible" fill="#FFF"/>
  <defs>
    <path id="i" d="M66.498 13.862c-.547.437-.82 1.005-.82 1.704 0 .338.066.638.2.9.134.263.323.492.567.69.246.198.54.376.883.533.345.15.727.3 1.146.42.292.09.56.18.804.28.246.09.455.19.63.31.176.11.31.25.402.4.094.15.14.33.14.56 0 .21-.053.38-.157.53-.104.14-.24.26-.41.36-.17.09-.362.16-.577.2-.216.04-.434.06-.656.06-.385 0-.807-.06-1.268-.19-.46-.13-.912-.32-1.354-.56l-.56 1.15c.466.26.977.47 1.53.62.554.14 1.1.22 1.634.22.467 0 .903-.06 1.313-.16.407-.11.764-.27 1.066-.48.31-.21.54-.47.71-.78.17-.31.26-.67.26-1.08 0-.4-.07-.74-.22-1.03-.15-.29-.36-.54-.64-.75s-.6-.4-.98-.56c-.38-.16-.79-.3-1.23-.43-.37-.1-.67-.21-.9-.31-.23-.1-.4-.2-.53-.3-.13-.11-.21-.22-.26-.338s-.07-.243-.07-.383c0-.28.14-.52.42-.724.28-.207.72-.31 1.32-.31.28 0 .63.04 1.03.114.41.078.84.23 1.28.46l.51-1.17c-.43-.233-.88-.403-1.35-.51-.47-.1-.95-.154-1.45-.154-1.03 0-1.813.22-2.362.66"/>
  </defs>
  <use xlink:href="#i" overflow="visible" fill="#FFF"/>
  <defs>
    <path id="j" d="M75.334 15.103c.402-.402.883-.604 1.443-.604.373 0 .69.07.952.21.26.14.47.33.64.56.17.23.29.48.37.76.08.28.12.55.12.82h-4.23c.06-.77.29-1.36.69-1.76m.01-1.59c-.46.21-.85.51-1.18.91-.33.4-.59.87-.78 1.42-.19.55-.28 1.18-.28 1.88s.09 1.32.27 1.86c.18.54.43.99.76 1.36s.72.64 1.17.83c.45.19.96.28 1.52.28.58 0 1.11-.09 1.6-.25.48-.17.94-.46 1.37-.85l-.75-.98c-.27.23-.59.42-.96.56-.38.14-.74.22-1.11.22-.76 0-1.33-.24-1.72-.72-.39-.48-.6-1.17-.62-2.07h5.71v-.61c0-.6-.08-1.15-.22-1.66-.15-.52-.37-.96-.67-1.33-.3-.38-.67-.67-1.1-.88-.44-.21-.96-.32-1.55-.32-.54 0-1.03.103-1.49.312"/>
  </defs>
  <use xlink:href="#j" overflow="visible" fill="#FFF"/>
  <path fill="#FFF" d="M48.867 24.41c.016 0 2.37.05 15.365.05 3.49 0 7.747-.004 12.93-.014 7.685.12 7.73-12.722 9.184-24.19.002-.016.003-.032.015-.067.02-.02.02-.16.27-.19.28.05.23.16.26.17.17.44.94 8.97 1.88 17.62.47 4.3.96 8.58 1.41 11.78.23 1.6.44 2.93.64 3.85.1.46.19.82.27 1.05.04.11.08.19.1.23l-.12.07v-.11c.12.01.12.03.12.03l-.12.07v-.11.18l-.16-.13c.01 0 .01-.05.16-.07v.19l-.16-.13c.25-.27 1.24-4.17 2.37-7.82 1.23-3.68 2.37-7.27 4.02-7.43 1.39.044 1.91 1.51 2.48 2.79.57 1.34 1.15 2.49 2.18 2.46h8.67v.55h-8.67c-1.5-.03-2.12-1.5-2.68-2.79-.56-1.34-1.11-2.5-1.97-2.454-.85-.17-2.51 3.61-3.6 7.4-.58 1.896-1.1 3.79-1.52 5.22-.2.715-.38 1.31-.53 1.735-.22.43-.07.653-.58.84-.62-.226-.5-.74-.79-1.71-.69-3.35-1.62-11.64-2.4-19.11-.39-3.735-.74-7.26-1.01-9.855-.13-1.3-.24-2.36-.33-3.1-.04-.37-.07-.656-.1-.85L86.38.4l-.01-.03.18-.052-.17.082-.01-.03.18-.052-.17.082.242-.118V.55c-.243-.04-.22-.144-.242-.15l.25-.117V.55.28l.255.088c-.014.008-.01.145-.256.18V.28l.25.088-.2-.068.2.027c0 .004 0 .012-.01.04L86.68.3l.207.027c-1.522 11.322-1.25 24.52-9.727 24.668-5.183.01-9.44.013-12.93.013-12.997 0-15.373-.05-15.378-.05l.012-.548z"/>
</svg>
