<svg xmlns="http://www.w3.org/2000/svg" viewBox="0 0 19.556 19.557"><defs><style>.a{fill:#fefeff;fill-rule:evenodd;}</style></defs><title>soc-twitter</title><path class="a" d="M0,0V19.557H19.555V0H0ZM8.558,9.983c0,0.116,0,.232,0,0.348-0.01.156,0,.315,0,0.473a0.033,0.033,0,0,0,.017.033c0,0.026,0,.052,0,0.078a0.114,0.114,0,0,0,.006.1l0,0.045a0.369,0.369,0,0,0,.009.16,0.689,0.689,0,0,0,.108.324l0.006,0.018a0.1,0.1,0,0,0,.043.074l0,0.008a0.026,0.026,0,0,0,.02.027L8.787,11.7,8.8,11.709c0.013,0.018.026,0.035,0.039,0.055a0.023,0.023,0,0,0,.02.025h0L8.867,11.8l0.016,0.02a0.332,0.332,0,0,0,.141.139l0.007,0A0.043,0.043,0,0,0,9.068,12l0.009,0,0.013,0.01,0.034,0.024a0.032,0.032,0,0,0,.036.023l0.014,0.01,0.008,0a0.113,0.113,0,0,0,.084.046l0.008,0a0.05,0.05,0,0,0,.05.021l0.009,0a0.1,0.1,0,0,0,.066.031,2.607,2.607,0,0,0,.6.064c0.212,0.015.422,0.012,0.634,0.014,0.385,0,.77,0,1.155,0l0.268,0h0.033a0.785,0.785,0,0,0,.234.011h0.044a0.207,0.207,0,0,0,.119.01h0.031c0.049,0.012.1,0.019,0.146,0.033s0.123,0.038.186,0.057a0.225,0.225,0,0,0,.027.01l0.014,0.01,0.01,0,0.014,0.008h0a0.055,0.055,0,0,0,.049.032l0.008,0a0.026,0.026,0,0,0,.028.02l0.008,0,0.013,0.01,0.014,0.012,0.019,0.014L13.06,12.5l0.012,0.012h0a0.023,0.023,0,0,0,.025.021l0.093,0.093a0.093,0.093,0,0,0,.055.063l0.015,0.019a0.025,0.025,0,0,0,.022.026l0,0.008a0.023,0.023,0,0,0,.019.027l0,0.008a0.024,0.024,0,0,0,.02.027l0,0.008a0.025,0.025,0,0,0,.021.027l0.011,0.022a0.025,0.025,0,0,0,.014.022,0.023,0.023,0,0,0,.011.023h0l0.008,0.015,0,0.01,0.009,0.014,0,0.009c0.031,0.1.065,0.2,0.1,0.3a0.071,0.071,0,0,0,0,.021,0.15,0.15,0,0,0,0,.063,1.19,1.19,0,0,1,.01.236,0.457,0.457,0,0,0-.007.159l0,0.018a0.429,0.429,0,0,0-.044.154l0,0.01a0.046,0.046,0,0,0-.021.049,0.025,0.025,0,0,0-.012.024l0,0.008-0.007.016,0,0.009-0.009.015,0,0.01-0.009.012v0l-0.012.021,0,0-0.008.013c-0.076.1-.148,0.208-0.228,0.306a0.951,0.951,0,0,1-.423.276,0.023,0.023,0,0,0-.025.01l-0.009,0a3.882,3.882,0,0,1-.548.085H12.084c-0.116-.014-0.232.014-0.349,0-0.156-.011-0.312-0.006-0.47,0-0.238.007-.476,0.007-0.714,0.013-0.218.007-.435,0-0.651-0.007-0.176-.008-0.351-0.021-0.525-0.045-0.138-.018-0.274-0.046-0.412-0.062l-0.034-.006a0.043,0.043,0,0,0-.045-0.019A3.989,3.989,0,0,1,8.41,14.5a0.07,0.07,0,0,0-.064-0.018l-0.032-.011a0.738,0.738,0,0,0-.234-0.114l-0.01,0-0.013-.008-0.009,0a0.077,0.077,0,0,0-.059-0.032h0a0.055,0.055,0,0,0-.049-0.03l-0.019-.008-0.013-.006v0a0.067,0.067,0,0,0-.058-0.034h0a0.138,0.138,0,0,0-.085-0.055l-0.008,0a0.032,0.032,0,0,0-.037-0.022L7.706,14.14a0.028,0.028,0,0,0-.033-0.026,0.022,0.022,0,0,0-.025-0.02l-0.008,0a0.159,0.159,0,0,0-.1-0.069l-0.013-.01h0A0.029,0.029,0,0,0,7.5,13.985l-0.045-.036-0.014-.011-0.023-.021a0.022,0.022,0,0,0-.024-0.022l-0.07-.059A0.022,0.022,0,0,0,7.3,13.814c-0.03-.027-0.061-0.056-0.091-0.084l-0.013-.011a0.122,0.122,0,0,0-.07-0.07C7.081,13.6,7.038,13.557,6.995,13.51a0.023,0.023,0,0,0-.021-0.025C6.951,13.457,6.927,13.432,6.9,13.4l-0.011-.012h0l-0.01-.013,0-.008a0.023,0.023,0,0,0-.021-0.025l-0.01-.012h0l-0.01-.011h0a0.031,0.031,0,0,0-.023-0.034L6.8,13.274l0-.007a0.022,0.022,0,0,0-.019-0.025h0a0.032,0.032,0,0,0-.023-0.036l0-.008a0.106,0.106,0,0,0-.053-0.072l0-.008a0.024,0.024,0,0,0-.019-0.029l0-.008a0.021,0.021,0,0,0-.018-0.025,0.033,0.033,0,0,0-.023-0.036l0-.009a0.023,0.023,0,0,0-.02-0.025h0l-0.009-.014,0-.008-0.009-.016,0-.008-0.011-.014L6.554,12.9a0.033,0.033,0,0,0-.021-0.037L6.52,12.846l-0.01-.014,0-.01L6.5,12.809l0-.009-0.011-.015-0.006-.018a0.084,0.084,0,0,0-.041-0.074h0a0.175,0.175,0,0,0-.023-0.076,3.508,3.508,0,0,1-.207-0.529A0.14,0.14,0,0,0,6.173,12c0-.01,0-0.02-0.006-0.03C6.154,11.9,6.14,11.822,6.124,11.748A0.068,0.068,0,0,0,6.1,11.68l0-.021a0.049,0.049,0,0,0,.008-0.021,2.158,2.158,0,0,1-.035-0.362,0.028,0.028,0,0,0-.013-0.024V11.113a0.674,0.674,0,0,0-.011-0.234l0-.242c0.011-.115,0-0.229,0-0.344a0.043,0.043,0,0,0-.011-0.019c0-.077,0-0.154,0-0.232,0-.022,0-0.047,0-0.069q0-1.8,0-3.607c0-.082-0.018-0.161-0.013-0.244A1.391,1.391,0,0,1,6.3,5.281a1.2,1.2,0,0,1,.734-0.471,1.415,1.415,0,0,1,.32-0.045,1.222,1.222,0,0,1,1.107.708,0.829,0.829,0,0,1,.083.349c0.012,0.211.021,0.425,0.028,0.637,0.007,0.175,0,.35.011,0.524,0,0.083-.007.165,0,0.248a0.049,0.049,0,0,0,.062.052c0.331,0,.663,0,1,0,0.688-.014,1.376-0.012,2.064-0.008,0.251,0,.5.006,0.755,0.025a1.1,1.1,0,0,1,.573.236,1.139,1.139,0,0,1,.32.355,1.024,1.024,0,0,1,.12.33,1.506,1.506,0,0,1,.049.354c-0.007.087-.019,0.173-0.028,0.259l0,0.023a1.36,1.36,0,0,0-.079.211,0.092,0.092,0,0,0-.006.019,0.02,0.02,0,0,0-.018.027l-0.041.077a0.023,0.023,0,0,0-.018.028l0,0.008a0.02,0.02,0,0,0-.02.025l0,0.009a0.023,0.023,0,0,0-.021.026,0.093,0.093,0,0,1-.015.02,0.024,0.024,0,0,0-.02.027l-0.015.019a0.08,0.08,0,0,0-.056.062c-0.019.019-.04,0.038-0.059,0.058a0.058,0.058,0,0,0-.049.045l-0.033.025a0.023,0.023,0,0,0-.025.021L13,9.567a0.02,0.02,0,0,0-.026.02l-0.008,0a0.021,0.021,0,0,0-.027.02l-0.008,0a0.074,0.074,0,0,0-.064.041l-0.017.007a0.053,0.053,0,0,0-.053.028l-0.009,0c-0.08.025-.163,0.049-0.244,0.074H12.517a0.112,0.112,0,0,0-.085.009c-0.03,0-.06,0-0.091,0a0.207,0.207,0,0,0-.119.012l-0.1,0a0.273,0.273,0,0,0-.153.01q-0.076,0-.152.006a0.521,0.521,0,0,0-.232.006H11.55c-0.019,0-.038,0-0.058,0-0.65,0-1.3,0-1.951-.009-0.163,0-.325-0.008-0.488,0H8.908c-0.108-.012-0.216,0-0.323,0-0.019,0-.039,0-0.037.026A0.346,0.346,0,0,0,8.558,9.983Z" transform="translate(0.001 0)"/></svg>