<svg xmlns="http://www.w3.org/2000/svg" viewBox="0 0 19.555 19.557"><defs><style>.a{fill:#fefeff;fill-rule:evenodd;}</style></defs><title>soc-vk</title><path class="a" d="M10.2,10.525c-0.617-.068-1.243-0.053-1.894-0.075,0,0.811,0,1.567.006,2.325a0.167,0.167,0,0,0,.12.114A15.035,15.035,0,0,0,10,12.844a1.116,1.116,0,0,0,1.123-1.182A1.017,1.017,0,0,0,10.2,10.525Z" transform="translate(0)"/><path class="a" d="M9.507,8.689a1.5,1.5,0,0,0,.677-0.262,0.966,0.966,0,0,0,.286-1.05,0.756,0.756,0,0,0-.719-0.668c-0.37-.031-0.743-0.024-1.114-0.032-0.1,0-.208,0-0.321,0V8.7A11.208,11.208,0,0,0,9.507,8.689Z" transform="translate(0)"/><path class="a" d="M0,0V19.557H19.555V0H0ZM13.539,12.916a3.009,3.009,0,0,1-1.826,1.6,4.3,4.3,0,0,1-1.508.24H5.792v-0.23q0-4.752-.007-9.5c0-.17.042-0.229,0.222-0.228,1.472,0.008,2.946,0,4.418.008a3.215,3.215,0,0,1,1.841.547,1.8,1.8,0,0,1,.81,1.333,2.6,2.6,0,0,1-.214,1.552A2.23,2.23,0,0,1,11.8,9.246c0.3,0.134.6,0.24,0.867,0.4a2.045,2.045,0,0,1,1.068,1.6A3.118,3.118,0,0,1,13.539,12.916Z" transform="translate(0)"/></svg>